<?xml version="1.0" standalone="no"?>
<!DOCTYPE svg PUBLIC "-//W3C//DTD SVG 20010904//EN"
 "http://www.w3.org/TR/2001/REC-SVG-20010904/DTD/svg10.dtd">
<svg version="1.0" xmlns="http://www.w3.org/2000/svg"
 width="1280.000000pt" height="1278.000000pt" viewBox="0 0 1280.000000 1278.000000"
 preserveAspectRatio="xMidYMid meet">
<metadata>
Created by potrace 1.15, written by Peter Selinger 2001-2017
</metadata>
<g transform="translate(0.000000,1278.000000) scale(0.100000,-0.100000)"
fill="currentColor" stroke="currentColor">
<path d="M6367 12718 c-93 -200 -255 -894 -313 -1352 l-18 -138 -49 52 c-27
28 -55 49 -61 47 -15 -6 -62 -102 -93 -190 -38 -110 -55 -204 -62 -344 l-6
-132 -65 44 c-36 25 -68 45 -72 45 -12 0 -37 -97 -54 -210 -19 -128 -30 -537
-16 -597 5 -24 8 -43 6 -43 -2 0 -36 25 -76 55 -40 30 -95 66 -123 80 -46 23
-51 24 -62 9 -21 -28 -26 -100 -20 -278 8 -236 46 -413 119 -559 16 -33 23
-55 16 -51 -7 4 -62 40 -123 80 -122 80 -181 111 -192 101 -13 -14 -22 -134
-17 -232 12 -216 55 -394 125 -508 46 -76 34 -84 -55 -36 -217 116 -211 117
-210 -22 1 -106 36 -254 99 -425 39 -104 114 -260 147 -307 11 -16 18 -31 15
-33 -8 -8 -84 28 -182 85 -48 29 -94 50 -101 47 -23 -9 -34 -52 -34 -130 0
-183 107 -424 264 -593 l58 -63 -31 0 c-17 0 -73 9 -124 21 l-92 20 -18 -22
c-15 -18 -17 -33 -12 -73 14 -109 94 -307 200 -496 31 -56 54 -104 50 -108 -4
-4 -42 12 -86 36 -43 23 -85 42 -92 42 -8 0 -22 -9 -32 -20 -40 -44 11 -273
99 -447 40 -81 145 -240 175 -267 12 -11 21 -22 21 -26 0 -4 -34 -10 -76 -12
-59 -4 -80 -10 -97 -26 -21 -21 -21 -22 -3 -79 10 -31 60 -145 111 -253 83
-173 135 -291 135 -305 0 -3 -14 -5 -30 -5 -24 0 -33 6 -42 28 -7 15 -23 44
-35 65 -31 50 -58 49 -121 -8 l-49 -45 -7 50 c-35 261 -254 633 -324 548 -5
-7 -15 -38 -21 -69 -7 -31 -17 -64 -24 -73 -11 -15 -15 -10 -31 41 -53 171
-151 372 -218 448 -50 58 -68 48 -137 -74 -19 -34 -37 -61 -41 -61 -4 0 -12
39 -19 88 -23 163 -75 299 -159 411 -67 88 -148 145 -170 118 -5 -7 -17 -50
-26 -97 -20 -99 -35 -150 -44 -150 -4 0 -18 35 -31 77 -62 200 -300 573 -365
573 -23 0 -44 -38 -56 -100 -16 -76 -40 -150 -50 -150 -4 0 -11 17 -15 38 -16
90 -116 249 -232 369 -69 70 -159 143 -179 143 -16 0 -28 -44 -49 -184 -8 -61
-18 -112 -20 -115 -3 -2 -10 11 -16 29 -50 141 -221 359 -388 492 -40 32 -81
58 -89 56 -21 -4 -39 -67 -47 -166 l-7 -79 -76 78 c-88 93 -276 242 -399 317
-47 28 -89 52 -94 52 -4 0 -13 -31 -20 -69 l-12 -69 -78 63 c-91 74 -189 133
-279 169 -78 30 -148 49 -158 42 -5 -3 -5 -31 -1 -63 3 -32 5 -59 5 -60 -1 -1
-24 14 -52 33 -350 253 -1089 652 -1131 611 -11 -12 73 -168 176 -325 147
-223 345 -489 513 -689 l77 -92 -62 -3 c-60 -3 -62 -4 -59 -28 6 -46 81 -188
142 -269 34 -44 91 -107 128 -141 60 -54 64 -60 41 -60 -30 0 -119 -29 -119
-38 0 -4 30 -46 66 -94 82 -111 294 -323 375 -377 34 -22 55 -43 48 -45 -8 -2
-50 -11 -94 -21 -83 -18 -135 -39 -135 -54 0 -15 63 -85 130 -146 135 -119
306 -224 435 -266 l70 -23 -60 -17 c-33 -10 -97 -28 -143 -40 -47 -12 -86 -28
-89 -36 -8 -21 104 -131 207 -204 108 -77 226 -134 314 -152 69 -13 69 -14 46
-30 -13 -9 -60 -29 -105 -43 -44 -14 -89 -35 -99 -45 -18 -16 -18 -19 -3 -42
53 -81 455 -271 621 -293 26 -4 49 -10 52 -15 7 -12 -39 -33 -138 -63 -47 -15
-91 -32 -97 -39 -14 -18 16 -65 70 -109 128 -102 299 -158 485 -158 55 0 94
-4 94 -10 0 -5 -34 -35 -76 -66 -41 -31 -78 -62 -81 -70 -21 -54 228 -168 480
-220 49 -10 86 -23 84 -29 -2 -5 -32 -20 -67 -33 -35 -12 -70 -28 -77 -34 -40
-33 15 -92 142 -153 116 -57 243 -93 377 -108 l107 -12 -35 -44 c-19 -25 -37
-56 -41 -69 -11 -46 0 -51 363 -162 93 -28 102 -33 117 -66 21 -42 21 -40 2
-48 -9 -3 -46 9 -83 28 -136 68 -261 102 -277 76 -4 -6 -1 -34 6 -64 6 -29 10
-58 8 -64 -2 -6 -31 10 -64 35 -78 59 -159 98 -240 113 -65 12 -129 8 -140
-10 -3 -5 12 -40 35 -77 39 -64 48 -88 33 -81 -5 2 -43 20 -85 40 -99 49 -234
88 -325 95 -91 7 -100 -5 -55 -77 32 -51 50 -95 36 -88 -127 62 -208 80 -347
76 -60 -2 -102 -7 -104 -14 -2 -6 19 -44 47 -85 27 -40 50 -77 50 -81 0 -4
-20 2 -43 12 -83 37 -177 53 -314 54 -88 1 -136 -3 -144 -11 -8 -8 -2 -25 26
-67 20 -31 41 -59 46 -62 24 -14 1 -19 -83 -16 -148 6 -378 -27 -378 -52 0 -8
9 -25 20 -39 11 -14 20 -27 20 -30 0 -2 -38 -7 -84 -10 -89 -6 -232 -48 -269
-78 l-22 -17 28 -30 28 -29 -78 -12 c-300 -47 -793 -178 -793 -211 0 -33 413
-130 754 -177 l128 -17 -33 -27 -32 -26 24 -17 c44 -30 179 -67 274 -73 l92
-6 -24 -35 c-13 -20 -20 -39 -15 -44 19 -19 138 -32 298 -32 l171 -1 -39 -56
c-21 -31 -38 -64 -38 -72 0 -52 337 -20 461 44 23 11 42 19 44 17 2 -2 -19
-37 -46 -78 -70 -107 -69 -110 40 -110 117 0 220 22 303 64 l67 33 -10 -25
c-6 -14 -22 -47 -36 -72 -33 -59 -27 -80 24 -80 66 0 224 49 336 103 71 35
107 48 107 39 0 -8 -16 -41 -35 -73 -19 -33 -35 -64 -35 -68 0 -27 97 -28 181
-1 82 25 150 65 218 126 l54 49 -6 -40 c-4 -22 -10 -56 -13 -76 -5 -32 -3 -38
15 -44 41 -13 192 46 337 131 24 14 44 23 44 20 0 -4 -12 -30 -26 -58 -25 -49
-25 -52 -8 -65 22 -16 25 -16 102 2 75 18 188 73 259 126 29 21 55 39 58 39 3
0 5 -14 5 -31 0 -53 17 -72 56 -64 26 4 42 1 64 -15 17 -12 30 -24 30 -28 0
-4 -28 -8 -61 -10 -81 -4 -165 -37 -209 -80 -33 -33 -34 -35 -15 -43 11 -5 38
-16 60 -25 l40 -16 -85 -27 c-119 -38 -230 -101 -230 -131 0 -4 22 -16 50 -25
56 -19 73 -35 37 -35 -36 0 -136 -54 -194 -105 -29 -26 -53 -51 -53 -55 0 -5
28 -18 63 -28 l62 -18 -57 -26 c-71 -33 -130 -73 -186 -128 -49 -48 -47 -56
22 -73 l47 -12 -47 -35 c-44 -33 -184 -185 -184 -200 0 -4 14 -10 31 -14 l32
-6 -45 -48 c-45 -48 -90 -119 -103 -159 -6 -21 -3 -23 25 -23 l32 0 -48 -53
c-89 -97 -324 -449 -305 -455 27 -9 287 128 459 241 l82 55 0 -29 c0 -17 5
-29 13 -29 24 0 154 68 190 100 l37 32 0 -31 c0 -20 5 -31 14 -31 19 0 121 71
192 134 l62 55 6 -49 c4 -27 10 -52 15 -55 22 -13 156 123 200 205 31 57 34
56 46 -32 3 -27 11 -48 17 -48 24 0 139 131 168 191 17 36 31 56 34 48 3 -8
10 -33 16 -56 6 -24 15 -43 19 -43 12 0 72 68 100 114 13 21 39 72 57 113 l32
75 11 -38 c6 -22 11 -47 11 -56 0 -35 23 -28 70 20 38 39 54 66 69 117 12 37
21 81 22 99 l0 31 17 -24 c9 -14 25 -34 35 -45 l17 -21 21 25 c25 30 81 139
98 193 16 46 27 47 35 2 8 -39 32 -47 59 -17 30 33 77 134 89 192 13 63 18 69
38 45 20 -24 48 -18 64 14 9 16 26 58 40 94 14 36 30 75 36 87 l12 22 22 -21
c22 -21 23 -21 40 -2 23 25 41 86 56 196 7 50 15 92 17 94 2 3 10 -5 19 -17
37 -53 45 -36 118 248 25 96 52 193 61 215 l15 40 -5 -65 c-3 -36 -15 -155
-26 -265 -30 -308 -34 -540 -14 -725 61 -570 66 -634 72 -913 l6 -287 57 0 57
0 7 46 c10 73 7 359 -5 501 -5 70 -21 217 -35 327 -48 398 -51 715 -9 1146 8
85 18 186 21 223 4 37 10 64 15 60 7 -7 124 -393 149 -490 6 -24 21 -55 34
-70 l24 -28 23 29 23 29 18 -113 c19 -116 48 -200 69 -200 7 0 20 7 30 16 21
19 24 15 69 -102 29 -76 54 -114 73 -114 6 0 21 10 34 22 l23 21 0 -25 c0 -57
61 -197 104 -237 30 -29 50 -19 61 32 l7 32 17 -50 c39 -110 94 -205 120 -205
4 0 18 19 31 43 l24 42 13 -62 c7 -35 24 -87 38 -117 26 -55 89 -121 105 -111
5 3 14 30 20 60 6 31 16 53 21 50 5 -4 9 -13 9 -21 0 -48 147 -280 173 -271
11 3 19 25 32 82 6 29 7 28 37 -34 29 -60 142 -191 166 -191 10 0 15 17 28 99
l6 44 26 -54 c25 -52 176 -219 199 -219 13 0 23 34 23 78 0 17 1 32 3 32 2 0
26 -21 53 -46 27 -25 85 -69 129 -99 l80 -54 8 30 8 30 38 -30 c43 -35 157
-91 183 -91 14 0 16 6 11 31 l-6 32 74 -50 c152 -102 430 -253 466 -253 32 0
-108 219 -269 420 -66 83 -67 85 -42 88 22 3 25 7 19 30 -10 40 -55 112 -101
160 l-42 43 29 6 c16 3 29 9 29 13 0 20 -114 146 -182 200 l-46 37 54 12 c30
7 54 18 54 24 0 25 -118 120 -198 160 l-84 41 58 16 c32 9 59 21 61 26 11 33
-178 164 -236 164 -37 0 -22 18 29 35 29 10 50 23 50 31 0 29 -183 123 -272
139 -47 9 -40 22 18 36 24 6 47 15 49 19 3 5 -6 22 -20 38 -35 42 -116 74
-202 80 -40 2 -73 8 -73 12 0 17 58 45 95 45 39 0 39 1 48 45 5 25 10 47 12
48 2 2 27 -15 55 -37 104 -82 296 -155 346 -132 29 13 30 21 4 71 -11 22 -20
43 -20 49 0 5 39 -13 88 -40 88 -50 190 -92 250 -104 48 -10 61 6 51 58 -4 23
-8 53 -9 65 0 24 1 24 38 -8 67 -56 145 -103 212 -127 76 -26 177 -31 186 -9
3 8 -11 45 -30 83 -20 38 -36 72 -36 76 0 4 33 -10 73 -32 140 -77 400 -146
421 -112 4 6 -9 43 -28 81 -43 83 -45 98 -8 71 62 -43 179 -73 310 -79 143 -6
142 -6 83 85 -69 107 -69 104 -2 77 110 -45 310 -74 405 -60 42 7 46 9 40 29
-4 12 -19 40 -34 62 -14 22 -29 45 -32 50 -4 6 54 10 165 11 148 0 270 13 299
31 5 2 -3 21 -17 41 l-25 37 85 7 c47 4 113 15 147 23 63 17 148 53 148 63 0
3 -11 18 -25 32 l-25 27 154 21 c331 47 716 139 716 172 0 33 -461 158 -763
206 l-108 17 30 24 c17 14 31 29 31 34 0 16 -117 65 -197 83 -40 9 -97 16
-128 16 l-55 0 26 40 c15 22 24 43 22 46 -17 16 -190 37 -324 38 l-151 1 44
63 c25 34 43 69 40 76 -18 46 -336 23 -462 -33 -26 -11 -42 -15 -38 -8 4 7 29
45 55 86 26 40 45 77 42 82 -8 14 -202 10 -277 -6 -38 -8 -94 -26 -124 -40
-31 -14 -57 -25 -59 -25 -7 0 10 35 38 81 15 25 28 56 28 69 0 22 -2 23 -77
17 -89 -6 -244 -52 -346 -103 -43 -22 -67 -30 -67 -22 0 7 16 39 35 71 41 68
42 73 13 88 -69 37 -286 -42 -397 -145 l-34 -31 7 35 c19 99 19 119 0 127 -27
10 -135 -22 -246 -74 -111 -52 -133 -50 -98 10 19 32 31 39 108 62 199 59 319
98 345 111 41 22 35 62 -19 127 -13 16 -24 33 -24 38 0 5 22 9 49 9 216 0 581
148 581 235 0 25 -33 55 -60 55 -20 1 -104 39 -98 45 3 3 59 19 124 35 205 50
345 105 407 160 20 17 37 38 37 45 0 8 -35 40 -77 72 -86 65 -98 82 -54 75 40
-6 212 14 286 33 131 33 294 135 330 205 19 36 15 39 -112 79 -138 44 -144 54
-46 76 212 47 583 230 610 302 9 24 -29 50 -110 74 -110 32 -162 69 -99 69 79
0 244 76 372 171 93 68 190 162 190 182 0 15 -44 33 -140 57 -25 6 -70 19
-100 27 l-54 16 74 26 c96 34 214 97 314 169 95 68 246 213 246 237 0 21 -46
39 -153 62 -48 9 -87 21 -87 25 0 5 5 8 11 8 21 0 133 95 242 204 102 104 247
277 247 297 0 8 -43 22 -107 35 l-31 6 69 66 c39 36 92 95 120 131 53 71 136
230 141 271 3 24 1 25 -60 25 -34 0 -62 3 -62 6 0 3 12 16 26 30 35 32 230
275 344 429 202 273 418 625 397 646 -11 11 -156 -46 -299 -117 -238 -119
-636 -354 -807 -477 -40 -29 -75 -52 -76 -50 -1 2 1 29 4 61 l7 57 -30 0 c-47
-1 -196 -61 -287 -116 -45 -27 -109 -74 -143 -106 l-62 -56 -11 65 c-7 36 -14
67 -17 71 -27 26 -398 -245 -518 -378 l-55 -60 -6 75 c-8 85 -25 163 -39 171
-30 19 -249 -178 -356 -321 -53 -70 -132 -215 -132 -241 0 -8 -4 -14 -8 -14
-5 0 -17 55 -26 122 -21 139 -32 178 -51 178 -20 0 -118 -84 -197 -168 -104
-111 -174 -222 -208 -332 l-18 -55 -16 38 c-9 21 -22 64 -27 95 -15 81 -34
122 -57 122 -10 0 -44 -26 -75 -58 -102 -107 -226 -323 -292 -506 -29 -81 -34
-87 -44 -68 -6 12 -20 65 -31 118 -11 52 -22 100 -26 105 -30 49 -173 -82
-242 -222 -43 -87 -91 -253 -93 -318 0 -20 -4 -45 -8 -55 -7 -18 -9 -17 -27
10 -11 16 -35 55 -54 87 -45 75 -65 75 -121 5 -51 -64 -134 -237 -184 -380
-21 -59 -41 -105 -45 -103 -5 3 -14 29 -20 57 -16 69 -37 108 -56 108 -31 0
-78 -45 -132 -128 -84 -129 -134 -260 -169 -442 l-8 -45 -51 48 c-28 26 -58
47 -66 47 -20 0 -51 -36 -77 -87 -18 -37 -26 -43 -52 -43 -38 0 -38 -1 48 185
198 426 199 428 164 459 -15 14 -42 20 -96 24 -41 2 -75 8 -75 12 0 4 9 15 21
26 30 27 135 186 175 267 88 174 139 403 99 447 -25 28 -37 26 -120 -20 -95
-52 -113 -53 -82 -2 93 150 198 383 228 506 23 99 23 108 1 136 l-17 21 -95
-20 c-52 -12 -107 -21 -123 -21 -29 0 -29 0 29 62 158 171 264 410 264 594 0
78 -11 121 -34 130 -7 3 -47 -15 -88 -40 -88 -53 -187 -100 -195 -93 -3 3 5
20 17 36 39 56 131 260 170 381 51 153 82 306 78 383 -4 84 -18 91 -100 47
-213 -114 -224 -115 -168 -23 37 62 79 180 100 282 28 139 34 412 10 451 -11
18 -40 6 -153 -69 -56 -37 -119 -77 -140 -90 l-39 -24 28 54 c40 79 71 178 96
303 19 93 23 145 23 318 0 251 -2 255 -83 211 -28 -16 -82 -50 -119 -78 -37
-27 -71 -51 -75 -53 -3 -2 -2 16 4 40 14 61 3 469 -16 598 -17 113 -42 210
-54 210 -4 0 -36 -20 -72 -45 l-65 -44 -6 132 c-9 176 -46 333 -110 457 -48
93 -42 91 -102 32 l-54 -54 -8 69 c-21 203 -122 727 -194 1013 -64 252 -137
460 -161 460 -5 0 -20 -24 -33 -52z"/>
</g>
</svg>
